<?xml version="1.0" encoding="utf-8"?>
<!-- Generator: Adobe Illustrator 22.0.0, SVG Export Plug-In . SVG Version: 6.00 Build 0)  -->
<svg version="1.1" id="Layer_1" xmlns="http://www.w3.org/2000/svg" xmlns:xlink="http://www.w3.org/1999/xlink" x="0px" y="0px"
	 viewBox="0 0 18 18" style="enable-background:new 0 0 18 18;" xml:space="preserve">
<style type="text/css">
	.st0{fill:#FFFFFF;}
	.st1{fill:#D21F26;}
</style>
<title>S VolumeMute 18 N</title>
<path class="st0" d="M6,13.5c0-1.6,0.7-3.2,2-4.2V2.5c0-0.2-0.2-0.4-0.4-0.4c-0.1,0-0.2,0-0.2,0.1L4.1,5.6C3.9,5.8,3.7,6,3.4,6H0.5
	C0.2,6,0,6.3,0,6.5v5C0,11.8,0.2,12,0.5,12h2.9c0.3,0,0.5,0.2,0.7,0.4l2,2.1C6,14.2,6,13.8,6,13.5z"/>
<path class="st1" d="M11.5,9.1c-2.5,0-4.4,2-4.4,4.4s2,4.4,4.4,4.4s4.4-2,4.4-4.4S14,9.1,11.5,9.1L11.5,9.1z M8,13.5
	c0-0.8,0.3-1.5,0.7-2.1l4.9,4.9c-1.5,1.2-3.7,0.9-4.9-0.6C8.3,15,8,14.3,8,13.5z M14.3,15.6l-4.9-4.9c1.5-1.2,3.7-0.9,4.9,0.6
	C15.2,12.6,15.2,14.4,14.3,15.6z"/>
</svg>
