<?xml version="1.0" encoding="utf-8"?>
<!-- Generator: Adobe Illustrator 22.0.0, SVG Export Plug-In . SVG Version: 6.00 Build 0)  -->
<svg version="1.1" id="Layer_1" xmlns="http://www.w3.org/2000/svg" xmlns:xlink="http://www.w3.org/1999/xlink" x="0px" y="0px"
	 viewBox="0 0 18 18" style="enable-background:new 0 0 18 18;" xml:space="preserve">
<style type="text/css">
	.st0{fill:#FFFFFF;}
</style>
<path class="st0" d="M3.4,6H0.5C0.2,6,0,6.3,0,6.5v5C0,11.8,0.2,12,0.5,12h2.9c0.2,0,0.3,0.1,0.5,0.2l3.6,3.6c0.2,0.1,0.4,0.1,0.5,0
	C8,15.7,8,15.6,8,15.5v-13c0-0.2-0.2-0.4-0.4-0.4c-0.1,0-0.2,0-0.2,0.1L3.8,5.9C3.7,6,3.5,6,3.4,6z"/>
<path class="st0" d="M11,9c0,0.8-0.2,1.5-0.7,2.1c-0.1,0.2-0.1,0.5,0,0.6l0,0c0.2,0.2,0.5,0.2,0.7,0c0,0,0,0,0,0
	c1.2-1.6,1.2-3.8,0-5.4c-0.2-0.2-0.5-0.3-0.7-0.1c0,0,0,0,0,0l0,0c-0.2,0.2-0.2,0.5,0,0.6C10.8,7.5,11,8.2,11,9z"/>
<path class="st0" d="M14,9c0,1.5-0.6,3-1.6,4.2c-0.2,0.2-0.1,0.5,0,0.7l0,0c0.2,0.2,0.5,0.2,0.7,0c0,0,0,0,0,0c0,0,0,0,0,0
	c2.4-2.8,2.4-6.9,0-9.7c-0.2-0.2-0.5-0.2-0.7-0.1c0,0,0,0,0,0l0,0c-0.2,0.2-0.2,0.5,0,0.7C13.5,5.9,14,7.4,14,9z"/>
</svg>
